<svg width="500" height="500" version="1.1" xmlns="http://www.w3.org/2000/svg" desc="Created with imagetracer.js version 1.2.6" ><path fill="rgb(63,220,254)" stroke="rgb(63,220,254)" stroke-width="0" opacity="1" d="M 228 50 L 271 50 L 272 51 L 279 51 L 280 52 L 284 52 L 285 53 L 290 53 L 295 55 L 299 55 L 303 57 L 307 57 L 316 60 L 319 62 L 321 62 L 324 64 L 327 64 L 340 71 L 342 71 L 344 73 L 359 81 L 376 94 L 377 94 Q 376 97 379 96 L 400 117 L 404 122 L 404 123 Q 407 122 406 125 L 415 136 L 429 159 L 429 161 L 431 163 L 431 165 L 435 172 L 436 177 L 438 180 L 438 182 L 440 185 L 443 194 L 443 198 L 445 202 L 445 206 L 446 207 L 447 216 L 449 222 L 449 229 L 450 230 L 450 271 L 449 272 L 449 279 L 448 280 L 448 284 L 447 285 L 447 290 L 445 295 L 445 299 L 443 303 L 443 307 L 440 316 L 436 324 L 436 327 L 424 351 L 413 368 L 406 376 L 406 377 Q 403 376 404 379 L 384 400 L 365 415 L 351 424 L 344 427 L 342 429 L 340 429 L 338 431 L 336 431 L 327 436 L 324 436 L 316 440 L 307 443 L 303 443 L 299 445 L 295 445 L 294 446 L 286 447 L 285 448 L 280 448 L 279 449 L 273 449 L 272 450 L 242 450 L 233 446 L 223 438 L 218 429 L 216 423 L 216 412 L 221 399 L 228 391 L 232 383 Q 231 379 233 378 L 233 368 L 232 367 L 232 363 L 230 360 L 230 358 L 227 353 L 220 345 L 212 341 L 203 340 L 202 339 L 149 339 L 148 338 L 141 338 L 136 336 L 132 336 L 123 333 L 120 331 L 118 331 L 101 322 Q 87 313 76 301 L 73 297 L 73 295 Q 70 296 71 294 L 64 284 L 57 270 L 55 264 L 55 261 L 52 254 L 52 250 L 50 244 L 50 209 L 51 208 L 51 203 L 52 202 L 53 193 L 55 189 L 55 185 L 57 181 L 57 178 L 59 175 L 62 165 L 71 147 L 80 133 L 91 119 L 109 101 L 124 89 L 136 81 L 165 66 L 167 66 L 175 62 L 178 62 L 181 60 L 184 60 L 191 57 L 194 57 L 199 55 L 203 55 L 208 53 L 214 53 L 215 52 Q 219 53 221 51 L 227 51 L 228 50 Z M 189 95 L 180 98 L 174 102 L 169 107 L 163 117 L 162 127 L 161 128 L 162 130 L 163 139 L 168 148 L 179 157 L 181 157 L 187 160 L 193 160 L 194 161 L 197 160 L 203 160 L 214 155 L 223 145 L 227 135 L 227 122 L 222 110 L 218 104 Q 215 105 216 102 L 207 97 L 201 95 L 189 95 Z M 300 95 L 288 100 L 286 102 Q 283 101 284 104 L 283 104 L 275 115 L 274 121 L 273 122 L 273 135 L 275 141 L 279 148 L 287 155 L 298 160 L 304 160 L 305 161 L 308 160 L 314 160 L 325 155 L 334 145 L 337 139 Q 336 135 338 135 L 338 129 L 339 128 L 338 127 L 337 117 L 331 107 Q 326 100 318 97 L 312 95 L 300 95 Z M 122 184 L 110 189 L 106 193 Q 103 192 104 195 L 102 195 L 97 205 L 95 211 L 95 223 L 97 227 L 97 230 L 102 238 L 111 245 L 117 248 L 126 249 L 127 250 L 139 248 L 147 244 L 157 233 L 157 231 L 160 225 L 160 219 L 161 218 L 159 206 L 155 198 Q 150 190 141 186 L 135 184 L 122 184 Z M 366 184 L 360 186 L 353 190 L 345 198 L 340 209 L 340 215 L 339 216 L 341 228 L 347 239 L 349 239 L 357 246 L 366 249 L 371 249 L 372 250 L 384 248 L 394 242 L 402 232 L 405 223 L 405 211 L 400 199 L 398 197 Q 399 194 396 195 L 396 193 L 395 193 L 391 189 L 379 184 L 366 184 Z " /><path fill="rgb(254,254,255)" stroke="rgb(254,254,255)" stroke-width="0" opacity="0" d="M 0 0 L 500 0 L 500 500 L 0 500 L 0 0 Z M 228 50 L 227 51 L 221 51 Q 219 53 215 52 L 214 53 L 208 53 L 203 55 L 199 55 L 194 57 L 191 57 L 184 60 L 181 60 L 178 62 L 175 62 L 167 66 L 165 66 L 136 81 L 124 89 L 109 101 L 91 119 L 80 133 L 71 147 L 62 165 L 59 175 L 57 178 L 57 181 L 55 185 L 55 189 L 53 193 L 52 202 L 51 203 L 51 208 L 50 209 L 50 244 L 52 250 L 52 254 L 55 261 L 55 264 L 57 270 L 64 284 L 71 294 Q 70 296 73 295 L 73 297 L 76 301 Q 87 313 101 322 L 118 331 L 120 331 L 123 333 L 132 336 L 136 336 L 141 338 L 148 338 L 149 339 L 202 339 L 203 340 L 212 341 L 220 345 L 227 353 L 230 358 L 230 360 L 232 363 L 232 367 L 233 368 L 233 378 Q 231 379 232 383 L 228 391 L 221 399 L 216 412 L 216 423 L 218 429 L 223 438 L 233 446 L 242 450 L 272 450 L 273 449 L 279 449 L 280 448 L 285 448 L 286 447 L 294 446 L 295 445 L 299 445 L 303 443 L 307 443 L 316 440 L 324 436 L 327 436 L 336 431 L 338 431 L 340 429 L 342 429 L 344 427 L 351 424 L 365 415 L 384 400 L 404 379 Q 403 376 406 377 L 406 376 L 413 368 L 424 351 L 436 327 L 436 324 L 440 316 L 443 307 L 443 303 L 445 299 L 445 295 L 447 290 L 447 285 L 448 284 L 448 280 L 449 279 L 449 272 L 450 271 L 450 230 L 449 229 L 449 222 L 447 216 L 446 207 L 445 206 L 445 202 L 443 198 L 443 194 L 440 185 L 438 182 L 438 180 L 436 177 L 435 172 L 431 165 L 431 163 L 429 161 L 429 159 L 415 136 L 406 125 Q 407 122 404 123 L 404 122 L 400 117 L 379 96 Q 376 97 377 94 L 376 94 L 359 81 L 344 73 L 342 71 L 340 71 L 327 64 L 324 64 L 321 62 L 319 62 L 316 60 L 307 57 L 303 57 L 299 55 L 295 55 L 290 53 L 285 53 L 284 52 L 280 52 L 279 51 L 272 51 L 271 50 L 228 50 Z " /><path fill="rgb(254,254,255)" stroke="rgb(254,254,255)" stroke-width="0" opacity="0" d="M 189 95 L 201 95 L 207 97 L 216 102 Q 215 105 218 104 L 222 110 L 227 122 L 227 135 L 223 145 L 214 155 L 203 160 L 197 160 L 194 161 L 193 160 L 187 160 L 181 157 L 179 157 L 168 148 L 163 139 L 162 130 L 161 128 L 162 127 L 163 117 L 169 107 L 174 102 L 180 98 L 189 95 Z " /><path fill="rgb(254,254,255)" stroke="rgb(254,254,255)" stroke-width="0" opacity="0" d="M 300 95 L 312 95 L 318 97 Q 326 100 331 107 L 337 117 L 338 127 L 339 128 L 338 129 L 338 135 Q 336 135 337 139 L 334 145 L 325 155 L 314 160 L 308 160 L 305 161 L 304 160 L 298 160 L 287 155 L 279 148 L 275 141 L 273 135 L 273 122 L 274 121 L 275 115 L 283 104 L 284 104 Q 283 101 286 102 L 288 100 L 300 95 Z " /><path fill="rgb(254,254,255)" stroke="rgb(254,254,255)" stroke-width="0" opacity="0" d="M 122 184 L 135 184 L 141 186 Q 150 190 155 198 L 159 206 L 161 218 L 160 219 L 160 225 L 157 231 L 157 233 L 147 244 L 139 248 L 127 250 L 126 249 L 117 248 L 111 245 L 102 238 L 97 230 L 97 227 L 95 223 L 95 211 L 97 205 L 102 195 L 104 195 Q 103 192 106 193 L 110 189 L 122 184 Z " /><path fill="rgb(254,254,255)" stroke="rgb(254,254,255)" stroke-width="0" opacity="0" d="M 366 184 L 379 184 L 391 189 L 395 193 L 396 193 L 396 195 Q 399 194 398 197 L 400 199 L 405 211 L 405 223 L 402 232 L 394 242 L 384 248 L 372 250 L 371 249 L 366 249 L 357 246 L 349 239 L 347 239 L 341 228 L 339 216 L 340 215 L 340 209 L 345 198 L 353 190 L 360 186 L 366 184 Z " /></svg>